<?xml version="1.0" encoding="UTF-8" standalone="no"?>
<svg
   xmlns:dc="http://purl.org/dc/elements/1.1/"
   xmlns:cc="http://creativecommons.org/ns#"
   xmlns:rdf="http://www.w3.org/1999/02/22-rdf-syntax-ns#"
   xmlns:svg="http://www.w3.org/2000/svg"
   xmlns="http://www.w3.org/2000/svg"
   version="1.1"
   id="svg2"
   viewBox="0 0 468.86345 246.64823"
   height="69.609612mm"
   width="132.32368mm">
  <defs
     id="defs4" />
  <metadata
     id="metadata7">
    <rdf:RDF>
      <cc:Work
         rdf:about="">
        <dc:format>image/svg+xml</dc:format>
        <dc:type
           rdf:resource="http://purl.org/dc/dcmitype/StillImage" />
        <dc:title></dc:title>
      </cc:Work>
    </rdf:RDF>
  </metadata>
  <g
     transform="translate(-140.56827,-409.03809)"
     id="layer1">
    <path
       id="path4221"
       d="m 201.10174,514.86074 c 12.16019,34.55539 33.37037,65.81987 63.75,93.75 30.0337,21.81872 64.13818,36.31007 102.45341,43.22205 68.27367,10.34654 107.73754,-5.19222 153.22981,-30.06988 75.39484,-44.47325 73.33676,-55.74951 86.26553,-103.15217 9.49335,-36.5599 -14.45644,-49.9638 -35.59783,-73.82764 -61.92333,-49.3479 -93.96409,-25.13925 -143.85093,-3.67236 70.01102,16.49853 90.92252,39.54366 112.5,62.5 23.86684,32.39789 -8.65487,56.1802 -45,78.75 -63.06345,33.28779 -96.36673,27.69005 -145,30 -35.63328,0.9949 -54.6508,-24.90858 -80,-47.5 -17.66012,-26.6468 -26.51861,-40.00931 -43.75,-55 -18.19805,-19.15884 -31.84766,-5.80309 -25,5 z"
       style="fill:#2a7fff;fill-opacity:1;fill-rule:evenodd;stroke:#2a7fff;stroke-width:1px;stroke-linecap:butt;stroke-linejoin:miter;stroke-opacity:1" />
    <path
       id="path4223"
       d="m 141.10173,484.52689 c 2.37906,-26.65 6.77606,-44.60475 31.67703,-58.38509 54.04758,11.56372 81.58706,33.51806 104.34782,71.42857 -44.47437,4.91206 -89.89494,1.91501 -136.02484,-13.04348 z"
       style="fill:#00ff00;fill-rule:evenodd;stroke:#00ff00;stroke-width:1px;stroke-linecap:butt;stroke-linejoin:miter;stroke-opacity:1" />
    <path
       id="path4160"
       d="m 432.73015,437.07553 c 0.0581,-0.23369 19.02688,1.03928 49.02161,12.80161 10.10154,3.95478 22.32577,9.55935 33.77991,17.76393 7.23953,5.16596 14.69616,11.86058 20.3106,20.53469 4.13751,6.41097 7.10878,14.11774 7.73581,22.48967 0.51491,7.61704 -0.91698,15.37469 -3.96043,22.61413 -3.23583,7.69936 -7.98036,14.71714 -13.63904,21.04971 -6.2419,7.00775 -13.46274,13.20177 -21.34177,18.75299 -8.52261,6.01292 -17.7284,11.25206 -27.46283,15.82226 -8.6508,4.0628 -17.67306,7.60405 -27.01419,10.59427 -13.43566,4.30092 -26.99778,7.29144 -40.37886,9.14943 -26.11124,3.64386 -51.15598,2.83263 -74.10362,-1.86858 -12.85913,-2.63765 -24.80698,-6.48169 -35.71628,-11.28946 0,0 -2e-5,0 -2e-5,0 -12.4723,-5.49763 -23.35264,-12.17861 -32.61356,-19.38087 -11.85449,-9.22345 -20.93841,-19.21534 -27.67905,-28.26884 -16.61009,-22.31794 -19.83619,-38.194 -19.70159,-38.25345 1.64604,-0.727 6.68696,14.32514 23.94654,34.90161 6.99875,8.34686 16.14089,17.51711 27.73791,25.88224 9.06148,6.53943 19.59065,12.56401 31.56309,17.48939 0,0 10e-6,10e-6 10e-6,10e-6 10.47598,4.31073 21.91203,7.71741 34.211,10.02318 21.962,4.12327 45.90375,4.59557 70.96632,0.97641 12.84985,-1.86491 25.85653,-4.77041 38.72065,-8.88493 8.9448,-2.86095 17.57713,-6.22864 25.84931,-10.07895 9.29812,-4.32932 18.03783,-9.22304 26.08079,-14.80582 7.43473,-5.16823 14.16661,-10.79458 19.89778,-17.09375 5.17281,-5.7056 9.46432,-11.77513 12.28732,-18.2925 2.62375,-6.05834 3.97541,-12.41669 3.64364,-18.5004 -0.30236,-6.66612 -2.65705,-13.13575 -5.99153,-18.67399 -4.56806,-7.60945 -11.18989,-13.86094 -17.75728,-18.95496 -10.41682,-8.04729 -22.01302,-13.95489 -31.63759,-18.32853 -28.70253,-13.02402 -47.21836,-16.30554 -46.75465,-18.1705 z"
       style="fill:#000000;fill-rule:evenodd;stroke:none;stroke-width:1px;stroke-linecap:butt;stroke-linejoin:miter;stroke-opacity:1" />
    <path
       id="path4164"
       d="m 197.0746,507.43853 c 2.26892,-0.99336 10.20309,24.43392 37.24814,59.75816 10.21004,13.33494 23.69338,28.37442 40.7573,41.57438 12.54899,9.71168 27.32544,18.6374 44.05692,25.23222 0,-10e-6 2e-5,0 2e-5,0 14.088,5.55867 29.54595,9.45983 45.91874,11.18839 29.10222,3.09493 60.24791,-0.813 91.229,-11.35044 13.57077,-4.62616 26.97981,-10.45121 40.0202,-17.46899 13.80816,-7.43096 26.74064,-15.95037 38.66691,-25.30762 11.00924,-8.64276 21.07029,-17.94537 29.99051,-27.93467 8.31183,-9.31716 15.54076,-19.05393 21.26565,-29.36849 5.13353,-9.28204 9.01538,-18.77334 10.79167,-28.4559 0.81877,-4.42866 1.20059,-8.83778 1.02952,-13.14651 -0.16515,-4.1895 -0.83466,-8.28195 -2.04248,-12.12934 -1.2347,-3.95235 -3.04226,-7.68078 -5.2881,-11.04235 -2.47825,-3.72048 -5.53459,-7.03372 -8.87735,-9.91485 -3.95164,-3.40723 -8.37102,-6.23261 -12.90416,-8.60086 -5.61207,-2.92932 -11.49976,-5.17492 -17.2993,-6.96359 -16.98123,-5.24419 -34.55333,-6.96302 -48.82143,-7.70993 -43.70238,-2.26453 -69.18893,3.29077 -69.47877,0.99961 0.0176,0.13933 25.19312,-7.45724 69.66961,-6.83802 14.56161,0.19493 32.63064,1.41909 50.70878,6.47493 6.17849,1.7305 12.54291,3.99866 18.75585,7.06135 5.02494,2.47506 10.01309,5.53581 14.62277,9.33862 3.90774,3.225 7.53333,7.02781 10.58012,11.40883 2.75536,3.97182 4.99207,8.39492 6.55865,13.13513 1.51779,4.61039 2.39604,9.45276 2.65233,14.3716 0.2618,5.04671 -0.0968,10.12754 -0.96884,15.14753 -1.91106,10.92281 -6.00889,21.42355 -11.44948,31.39003 -6.03805,11.09804 -13.59654,21.48944 -22.24295,31.28551 -9.27639,10.51969 -19.71512,20.27945 -31.11537,29.28451 -12.3366,9.75015 -25.73578,18.61116 -40.06492,26.32147 -13.53217,7.28146 -27.46156,13.30405 -41.57105,18.06434 -32.24286,10.902 -64.8689,14.69857 -95.44145,11.15818 -17.20477,-2.00497 -33.40087,-6.33245 -48.12137,-12.40969 0,0 -2e-5,-10e-6 -2e-5,-10e-6 -17.48187,-7.22416 -32.73722,-16.84755 -45.55953,-27.25793 -17.42938,-14.15697 -30.83304,-30.01705 -40.76544,-44.05076 -26.25644,-37.09708 -32.22605,-63.36946 -32.51068,-63.24484 z"
       style="fill:#000000;fill-rule:evenodd;stroke:none;stroke-width:1px;stroke-linecap:butt;stroke-linejoin:miter;stroke-opacity:1" />
    <path
       id="path4168"
       d="m 147.25611,479.75292 c -1.29004,-0.44091 -1.48683,-3.77995 -0.91276,-8.81232 0.5471,-4.79606 1.94526,-12.23963 4.76944,-19.55419 0.19856,-0.51424 0.40244,-1.02379 0.6118,-1.52857 1.96416,-4.75262 4.4641,-8.80394 7.36871,-12.04227 6.22076,-6.88986 12.23802,-7.86227 13.07789,-6.5794 1.03376,1.57902 -2.7327,5.44336 -6.2134,11.6447 -1.77986,3.13029 -3.27209,6.44256 -4.98334,10.73597 -0.1811,0.45602 -0.36178,0.91598 -0.54298,1.38148 -2.8886,7.42093 -4.66937,12.75972 -7.31334,17.98164 -2.34996,4.64127 -4.54314,7.22373 -5.86202,6.77296 z"
       style="fill:#000000;fill-rule:evenodd;stroke:none;stroke-width:1px;stroke-linecap:butt;stroke-linejoin:miter;stroke-opacity:1" />
    <path
       id="path4172"
       d="m 264.8936,488.17113 c -1.91971,2.1006 -20.73389,-12.93313 -45.21465,-28.72777 -13.10769,-8.45691 -22.81028,-14.00131 -32.00413,-19.36305 -8.31318,-4.84814 -13.51928,-8.05781 -13.00363,-9.38126 0.48555,-1.2462 6.62924,-0.35984 15.97354,2.97651 9.51609,3.3977 21.57183,9.06969 34.4501,17.36818 25.64784,16.52694 41.5635,35.19637 39.79877,37.12739 z"
       style="fill:#000000;fill-rule:evenodd;stroke:#000000;stroke-width:1px;stroke-linecap:butt;stroke-linejoin:miter;stroke-opacity:1" />
    <path
       id="path4176"
       d="m 152.25611,486.7158 c 0.22298,-2.75098 28.6072,-2.69766 63.35765,0.11901 34.75044,2.81667 62.77273,7.33534 62.54975,10.08632 -0.22298,2.75098 -28.6072,2.69766 -63.35765,-0.11901 -34.75044,-2.81667 -62.77273,-7.33534 -62.54975,-10.08632 z"
       style="fill:#000000;fill-rule:evenodd;stroke:none;stroke-width:1px;stroke-linecap:butt;stroke-linejoin:miter;stroke-opacity:1" />
    <text
       transform="scale(1.0638371,0.93999354)"
       id="text4180"
       y="497.60718"
       x="273.26544"
       style="font-style:normal;font-variant:normal;font-weight:bold;font-stretch:normal;font-size:75.55376434px;line-height:125%;font-family:'Segoe Print';-inkscape-font-specification:'Segoe Print Bold';letter-spacing:0px;word-spacing:0px;fill:#000000;fill-opacity:1;stroke:none;stroke-width:1px;stroke-linecap:butt;stroke-linejoin:miter;stroke-opacity:1"
       xml:space="preserve"><tspan
         y="497.60718"
         x="273.26544"
         id="tspan4182">All</tspan><tspan
         id="tspan4184"
         y="592.04938"
         x="273.26544">Agile</tspan></text>
  </g>
</svg>
